<svg width="343" height="51" viewBox="0 0 343 51" fill="none" xmlns="http://www.w3.org/2000/svg">
<path d="M7.38506 37.2314L11.9743 14.351H16.1045L12.2693 33.5601H20.956L20.2348 37.2314H7.38506ZM35.8832 37.2314C35.0965 37.2314 34.4518 37.0238 33.9492 36.6086C33.4465 36.1934 33.1952 35.6143 33.1952 34.8713C33.1952 34.6965 33.2061 34.5107 33.228 34.314C33.2717 34.1173 33.3045 33.9644 33.3263 33.8551L33.4247 33.3306H33.2608C32.5615 34.7292 31.7857 35.8001 30.9334 36.5431C30.0811 37.2642 28.9994 37.6248 27.6882 37.6248C26.9015 37.6248 26.2021 37.4828 25.5903 37.1987C25.0002 36.8927 24.5085 36.4666 24.1152 35.9202C23.7218 35.3739 23.4268 34.7292 23.2301 33.9862C23.0334 33.2432 22.9351 32.4128 22.9351 31.4949C22.9351 29.8341 23.1318 28.2934 23.5251 26.873C23.9185 25.4306 24.4648 24.185 25.1641 23.136C25.8853 22.0652 26.7376 21.2348 27.721 20.6448C28.7262 20.0329 29.8189 19.7269 30.999 19.7269C32.1572 19.7269 33.1297 20.0329 33.9164 20.6448C34.7031 21.2567 35.1729 22.0543 35.3259 23.0377H35.4898L36.0799 20.1203H40.0462L37.2599 33.9862H39.3251L38.7023 37.2314H35.8832ZM29.4911 34.314C30.1248 34.314 30.693 34.1611 31.1956 33.8551C31.7201 33.5273 32.1681 33.1449 32.5396 32.7078C32.9767 32.227 33.3373 31.6807 33.6214 31.0688C33.9054 30.4351 34.124 29.7685 34.277 29.0692L34.867 26.1518C35.0418 25.2777 34.8451 24.5456 34.277 23.9555C33.7306 23.3437 32.933 23.0377 31.884 23.0377C29.6331 23.0377 28.2236 24.4472 27.6554 27.2663L27.1965 29.6265C27.1528 29.8669 27.1091 30.1619 27.0654 30.5115C27.0216 30.8612 26.9998 31.1671 26.9998 31.4294C26.9998 32.3035 27.2074 33.0028 27.6226 33.5273C28.0597 34.0518 28.6825 34.314 29.4911 34.314ZM45.9103 37.2314C43.5501 37.2314 42.37 36.259 42.37 34.314C42.37 34.1392 42.381 33.9425 42.4028 33.724C42.4247 33.4836 42.4574 33.2432 42.5011 33.0028L44.4352 23.3655H41.9767L42.5995 20.1203H43.8123C44.4898 20.1203 44.9378 19.9892 45.1563 19.7269C45.3967 19.4428 45.5715 19.0058 45.6808 18.4157L46.2708 15.4327H49.975L49.0571 20.1203H52.499L51.8434 23.3655H48.4015L46.2708 33.9862H49.5161L48.8605 37.2314H45.9103ZM57.6053 17.629C56.8841 17.629 56.3597 17.487 56.0319 17.2029C55.7041 16.9188 55.5402 16.5473 55.5402 16.0883C55.5402 15.7605 55.5948 15.3453 55.7041 14.8427C55.8352 14.2964 56.0865 13.8265 56.458 13.4332C56.8514 13.018 57.5179 12.8103 58.4576 12.8103C59.1787 12.8103 59.7032 12.9524 60.031 13.2365C60.3588 13.5206 60.5227 13.8921 60.5227 14.351C60.5227 14.6788 60.4681 15.094 60.3588 15.5966C60.2277 16.143 59.9655 16.6238 59.5721 17.039C59.2006 17.4323 58.545 17.629 57.6053 17.629ZM54.9173 37.2314C54.0869 37.2314 53.4204 37.0129 52.9178 36.5758C52.437 36.1169 52.1966 35.516 52.1966 34.7729C52.1966 34.5544 52.2294 34.2812 52.2949 33.9534L55.0485 20.1203H59.0148L56.2613 33.9862H58.3265L57.6709 37.2314H54.9173ZM60.0423 37.2314L63.4842 20.1203H67.4506L66.6966 23.9228H66.8605C67.4943 22.5679 68.2482 21.5298 69.1223 20.8087C70.0183 20.0875 71.1219 19.7269 72.4331 19.7269C73.8099 19.7269 74.8479 20.1203 75.5472 20.907C76.2684 21.6937 76.629 22.8082 76.629 24.2506C76.629 24.6221 76.5962 25.0045 76.5306 25.3979C76.4869 25.7694 76.4214 26.1737 76.3339 26.6107L74.8588 33.9862H76.7601L76.1045 37.2314H73.351C72.5642 37.2314 71.9414 37.0348 71.4825 36.6414C71.0236 36.2262 70.7941 35.6471 70.7941 34.9041C70.7941 34.5981 70.8269 34.2922 70.8925 33.9862L72.302 26.9385C72.4331 26.3266 72.4987 25.7257 72.4987 25.1356C72.4987 24.5019 72.3457 24.0102 72.0398 23.6605C71.7338 23.289 71.2203 23.1033 70.4991 23.1033C69.9309 23.1033 69.4064 23.2453 68.9257 23.5294C68.4449 23.7916 68.0078 24.1522 67.6145 24.6111C67.1774 25.1138 66.795 25.671 66.4672 26.2829C66.1612 26.8948 65.9427 27.5395 65.8116 28.2169L64.0087 37.2314H60.0423ZM85.5477 37.6248C83.5372 37.6248 81.931 37.0129 80.729 35.7891C79.5271 34.5653 78.9261 32.8061 78.9261 30.5115C78.9261 29.0037 79.1447 27.5941 79.5817 26.2829C80.0188 24.9717 80.6307 23.8354 81.4174 22.8738C82.2041 21.8904 83.1329 21.1255 84.2037 20.5792C85.2745 20.011 86.4546 19.7269 87.7439 19.7269C89.7545 19.7269 91.3607 20.3388 92.5626 21.5626C93.7645 22.7864 94.3655 24.5456 94.3655 26.8402C94.3655 28.3481 94.147 29.7576 93.7099 31.0688C93.2728 32.38 92.6609 33.5273 91.8742 34.5107C91.0875 35.4723 90.1478 36.2371 89.0551 36.8053C87.9843 37.3516 86.8152 37.6248 85.5477 37.6248ZM85.7771 34.3468C86.7605 34.3468 87.591 33.9862 88.2684 33.2651C88.9677 32.5439 89.4485 31.4949 89.7107 30.1182L90.3008 27.2663C90.3445 27.0478 90.3773 26.862 90.3991 26.7091C90.421 26.5342 90.4319 26.3266 90.4319 26.0862C90.4319 25.1684 90.1806 24.4254 89.678 23.8572C89.1972 23.289 88.476 23.0049 87.5145 23.0049C86.5311 23.0049 85.6897 23.3655 84.9904 24.0867C84.313 24.8078 83.8431 25.8568 83.5809 27.2335L82.9908 30.1182C82.9471 30.293 82.9144 30.4678 82.8925 30.6427C82.8707 30.8175 82.8597 31.0251 82.8597 31.2655C82.8597 32.1833 83.1001 32.9263 83.5809 33.4945C84.0835 34.0627 84.8156 34.3468 85.7771 34.3468Z" fill="white"/>
<path d="M132 50.4625L128.013 46.8875C123.383 42.7167 119.556 39.1187 116.531 36.0937C113.506 33.0687 111.1 30.3531 109.312 27.9469C107.525 25.5406 106.276 23.3292 105.566 21.3125C104.855 19.2958 104.5 17.2333 104.5 15.125C104.5 10.8167 105.944 7.21875 108.831 4.33125C111.719 1.44375 115.317 0 119.625 0C122.008 0 124.277 0.504167 126.431 1.5125C128.585 2.52083 130.442 3.94167 132 5.775C133.558 3.94167 135.415 2.52083 137.569 1.5125C139.723 0.504167 141.992 0 144.375 0C148.683 0 152.281 1.44375 155.169 4.33125C158.056 7.21875 159.5 10.8167 159.5 15.125C159.5 17.2333 159.145 19.2958 158.434 21.3125C157.724 23.3292 156.475 25.5406 154.688 27.9469C152.9 30.3531 150.494 33.0687 147.469 36.0937C144.444 39.1187 140.617 42.7167 135.987 46.8875L132 50.4625Z" fill="#D9D9D9"/>
<path d="M132 50.4625L128.013 46.8875C123.383 42.7167 119.556 39.1187 116.531 36.0937C113.506 33.0687 111.1 30.3531 109.312 27.9469C107.525 25.5406 106.276 23.3292 105.566 21.3125C104.855 19.2958 104.5 17.2333 104.5 15.125C104.5 10.8167 105.944 7.21875 108.831 4.33125C111.719 1.44375 115.317 0 119.625 0C122.008 0 124.277 0.504167 126.431 1.5125C128.585 2.52083 130.442 3.94167 132 5.775C133.558 3.94167 135.415 2.52083 137.569 1.5125C139.723 0.504167 141.992 0 144.375 0C148.683 0 152.281 1.44375 155.169 4.33125C158.056 7.21875 159.5 10.8167 159.5 15.125C159.5 17.2333 159.145 19.2958 158.434 21.3125C157.724 23.3292 156.475 25.5406 154.688 27.9469C152.9 30.3531 150.494 33.0687 147.469 36.0937C144.444 39.1187 140.617 42.7167 135.987 46.8875L132 50.4625Z" fill="url(#paint0_linear_1023_31853)"/>
<g clip-path="url(#clip0_1023_31853)">
<path d="M125.365 10.7452C125.227 10.7169 125.084 10.74 124.962 10.8103C124.841 10.8805 124.749 10.993 124.705 11.1264C124.239 12.5228 123.089 16.7439 124.918 19.9123C126.903 23.35 132 22.9998 132 22.9998C132 22.9998 134.852 18.7607 132.867 15.323C131.038 12.1546 126.807 11.0405 125.365 10.7452Z" fill="#FFB9B9"/>
<path d="M118.07 22.6193C117.976 22.7243 117.925 22.86 117.925 23.0005C117.925 23.141 117.976 23.2766 118.07 23.3817C119.046 24.4828 122.127 27.5898 125.785 27.5898C129.755 27.5898 132 23.0005 132 23.0005C132 23.0005 129.755 18.4111 125.785 18.4111C122.127 18.4111 119.046 21.5182 118.07 22.6193Z" fill="#FFB9B9"/>
<path d="M124.705 34.8737C124.749 35.007 124.841 35.1195 124.962 35.1898C125.084 35.26 125.227 35.2832 125.365 35.2549C126.807 34.9596 131.038 33.8454 132.867 30.677C134.852 27.2393 132 23.0003 132 23.0003C132 23.0003 126.903 22.65 124.918 26.0877C123.089 29.2562 124.239 33.4773 124.705 34.8737Z" fill="#FFB9B9"/>
<path d="M138.635 35.2549C138.773 35.2832 138.916 35.26 139.038 35.1898C139.159 35.1195 139.251 35.007 139.295 34.8737C139.76 33.4773 140.911 29.2561 139.082 26.0877C137.097 22.65 132 23.0003 132 23.0003C132 23.0003 129.148 27.2393 131.133 30.677C132.962 33.8454 137.193 34.9596 138.635 35.2549Z" fill="#FFB9B9"/>
<path d="M145.93 23.3817C146.024 23.2766 146.075 23.141 146.075 23.0005C146.075 22.86 146.024 22.7243 145.93 22.6193C144.954 21.5182 141.873 18.4111 138.215 18.4111C134.245 18.4111 132 23.0005 132 23.0005C132 23.0005 134.245 27.5898 138.215 27.5898C141.873 27.5898 144.954 24.4827 145.93 23.3817Z" fill="#FFB9B9"/>
<path d="M139.295 11.1264C139.251 10.993 139.159 10.8805 139.038 10.8103C138.916 10.74 138.773 10.7169 138.635 10.7452C137.193 11.0405 132.962 12.1546 131.133 15.323C129.148 18.7607 132 22.9998 132 22.9998C132 22.9998 137.097 23.35 139.082 19.9123C140.911 16.7439 139.76 12.5228 139.295 11.1264Z" fill="#FFB9B9"/>
<path d="M131.619 9.06935C130.668 9.91285 128.219 12.3272 127.571 15.3282C128.031 15.476 128.482 15.6694 128.913 15.9182C132.35 17.903 132 23 132 23C132 23 136.589 20.7548 136.589 16.7853C136.589 13.1268 133.482 10.0465 132.381 9.06975C132.276 8.97645 132.141 8.92488 132 8.9248C131.86 8.92473 131.724 8.97616 131.619 9.06935Z" fill="#FF4F41"/>
<path d="M133.817 21.7944C133.687 19.8185 133.002 16.1596 129.83 14.3284C129.309 14.0274 128.751 13.7812 128.158 13.5889C127.907 14.1393 127.702 14.7217 127.571 15.3281C128.031 15.4759 128.482 15.6693 128.913 15.9181C132.35 17.9028 132 22.9999 132 22.9999C132 22.9999 132.849 22.584 133.817 21.7944Z" fill="#680F20"/>
<path d="M119.745 16.3639C120 17.6091 120.867 20.9373 123.141 22.9996C123.499 22.675 123.892 22.3814 124.323 22.1325C127.761 20.1478 132 22.9996 132 22.9996C132 22.9996 132.35 17.9026 128.913 15.9178C125.744 14.0886 121.523 15.2391 120.127 15.7043C119.993 15.7485 119.881 15.8401 119.811 15.9617C119.74 16.0832 119.717 16.2264 119.745 16.3639Z" fill="#FF4F41"/>
<path d="M131.865 20.8238C130.088 19.9485 126.577 18.7124 123.405 20.5436C122.884 20.8445 122.392 21.2052 121.928 21.6225C122.28 22.1151 122.682 22.5837 123.141 23.0005C123.499 22.6759 123.892 22.3823 124.323 22.1334C127.761 20.1486 132 23.0005 132 23.0005C132 23.0005 132.064 22.0569 131.865 20.8238Z" fill="#680F20"/>
<path d="M120.126 30.2952C121.332 30.6969 124.647 31.6107 127.571 30.672C127.469 30.1995 127.411 29.7126 127.411 29.2149C127.411 25.2454 132 23.0002 132 23.0002C132 23.0002 127.761 20.1483 124.323 22.1331C121.155 23.9623 120.041 28.1932 119.745 29.6352C119.717 29.7727 119.74 29.9158 119.81 30.0375C119.88 30.1591 119.993 30.2508 120.126 30.2952Z" fill="#FF4F41"/>
<path d="M130.047 22.0293C128.401 23.1299 125.575 25.5527 125.575 29.2152C125.575 29.817 125.641 30.4239 125.771 31.0336C126.373 30.9757 126.98 30.862 127.571 30.6723C127.468 30.1998 127.41 29.7129 127.41 29.2152C127.41 25.2457 132 23.0005 132 23.0005C132 23.0005 131.215 22.4727 130.047 22.0293Z" fill="#680F20"/>
<path d="M132.381 36.9307C133.331 36.0872 135.78 33.6728 136.429 30.6718C135.969 30.524 135.518 30.3306 135.087 30.0818C131.65 28.0971 132 23 132 23C132 23 127.411 25.2452 127.411 29.2147C127.411 32.8732 130.518 35.9535 131.619 36.9303C131.724 37.0236 131.859 37.0751 131.999 37.0752C132.14 37.0753 132.275 37.0239 132.381 36.9307Z" fill="#FF4F41"/>
<path d="M130.182 24.2055C130.313 26.1813 130.998 29.8403 134.169 31.6715C134.691 31.9724 135.249 32.2187 135.842 32.411C136.093 31.8606 136.298 31.2782 136.429 30.6717C135.969 30.524 135.518 30.3306 135.087 30.0818C131.65 28.097 132 23 132 23C132 23 131.15 23.4159 130.182 24.2055Z" fill="#680F20"/>
<path d="M144.255 29.6357C144 28.3905 143.133 25.0624 140.859 23C140.501 23.3247 140.108 23.6182 139.677 23.8671C136.239 25.8519 132 23 132 23C132 23 131.65 28.0971 135.087 30.0818C138.256 31.911 142.477 30.7605 143.873 30.2953C144.007 30.2511 144.119 30.1595 144.189 30.038C144.26 29.9164 144.283 29.7733 144.255 29.6357Z" fill="#FF4F41"/>
<path d="M132.135 25.1767C133.911 26.052 137.423 27.2881 140.595 25.4569C141.116 25.156 141.608 24.7953 142.071 24.378C141.72 23.8855 141.318 23.4168 140.859 23C140.501 23.3247 140.108 23.6182 139.677 23.8671C136.239 25.8519 132 23 132 23C132 23 131.935 23.9436 132.135 25.1767Z" fill="#680F20"/>
<path d="M143.874 15.7053C142.668 15.3036 139.353 14.3898 136.429 15.3285C136.531 15.801 136.589 16.2879 136.589 16.7856C136.589 20.7551 132 23.0003 132 23.0003C132 23.0003 136.239 25.8522 139.677 23.8674C142.845 22.0382 143.959 17.8073 144.254 16.3653C144.283 16.2278 144.26 16.0847 144.19 15.963C144.119 15.8414 144.007 15.7497 143.874 15.7053Z" fill="#FF4F41"/>
<path d="M133.953 23.9711C135.599 22.8704 138.425 20.4476 138.425 16.7852C138.425 16.1833 138.359 15.5764 138.229 14.9668C137.627 15.0247 137.02 15.1384 136.429 15.3281C136.531 15.8006 136.589 16.2875 136.589 16.7852C136.589 20.7547 132 22.9999 132 22.9999C132 22.9999 132.785 23.5276 133.953 23.9711Z" fill="#680F20"/>
<path d="M132 24.8355C133.014 24.8355 133.836 24.0136 133.836 22.9998C133.836 21.9859 133.014 21.1641 132 21.1641C130.986 21.1641 130.164 21.9859 130.164 22.9998C130.164 24.0136 130.986 24.8355 132 24.8355Z" fill="#610D20"/>
<path d="M132.823 21.3594C132.951 21.6146 133.018 21.8964 133.017 22.182C133.017 23.1958 132.195 24.0177 131.182 24.0177C130.896 24.018 130.614 23.9513 130.359 23.823C130.661 24.4237 131.282 24.8361 132 24.8361C133.014 24.8361 133.836 24.0142 133.836 23.0004C133.836 22.2824 133.423 21.6611 132.823 21.3594Z" fill="#610D20"/>
<path d="M129.052 11.9963C127.556 11.2584 126.099 10.8957 125.364 10.7454C125.227 10.7171 125.084 10.7402 124.962 10.8104C124.841 10.8806 124.749 10.993 124.705 11.1262C124.468 11.837 124.053 13.2803 123.945 14.9444M120.997 20.0511C119.61 20.9773 118.567 22.0584 118.07 22.6189C117.976 22.7239 117.925 22.8594 117.925 22.9998C117.925 23.1403 117.976 23.2758 118.07 23.3808C118.567 23.9413 119.609 25.0223 120.996 25.9482M123.945 31.0545C124.053 32.7188 124.468 34.1624 124.705 34.8733C124.749 35.0066 124.841 35.1189 124.962 35.1892C125.084 35.2594 125.227 35.2826 125.365 35.2543C126.099 35.1041 127.556 34.7417 129.051 34.0036M134.948 34.0032C136.444 34.7411 137.901 35.1038 138.635 35.2541C138.773 35.2824 138.916 35.2593 139.038 35.1891C139.159 35.1189 139.251 35.0065 139.295 34.8733C139.532 34.1625 139.947 32.7192 140.055 31.0551M143.003 25.9484C144.39 25.0221 145.433 23.9411 145.93 23.3805C146.023 23.2755 146.075 23.14 146.075 22.9996C146.075 22.8592 146.023 22.7236 145.93 22.6187C145.433 22.0581 144.391 20.9772 143.004 20.0512M140.055 14.9449C139.946 13.2807 139.532 11.837 139.295 11.1261C139.25 10.9929 139.159 10.8805 139.037 10.8103C138.916 10.7401 138.773 10.7169 138.635 10.7451C137.901 10.8953 136.444 11.2577 134.948 11.9958" stroke="black" stroke-width="0.849614" stroke-miterlimit="10" stroke-linecap="round" stroke-linejoin="round"/>
<path d="M133.546 22.0093C134.879 20.9893 136.589 19.2087 136.589 16.7854C136.589 13.1269 133.482 10.0466 132.381 9.06981C132.276 8.97648 132.141 8.92489 132 8.9248C131.86 8.92472 131.724 8.97615 131.619 9.06936C130.668 9.91285 128.219 12.3273 127.571 15.3284" stroke="black" stroke-width="0.849614" stroke-miterlimit="10" stroke-linecap="round" stroke-linejoin="round"/>
<path d="M131.915 21.1653C131.698 19.5013 131.011 17.1294 128.913 15.9179C125.744 14.0886 121.523 15.2392 120.127 15.7044C119.993 15.7486 119.881 15.8401 119.811 15.9617C119.74 16.0833 119.717 16.2264 119.745 16.3639C120 17.6092 120.867 20.9375 123.141 22.9996M122.826 30.9356C124.251 31.144 125.97 31.1853 127.571 30.671" stroke="black" stroke-width="0.849614" stroke-miterlimit="10" stroke-linecap="round" stroke-linejoin="round"/>
<path d="M120.882 30.5247C120.58 30.4409 120.325 30.3611 120.126 30.2948C119.85 30.203 119.687 29.9198 119.746 29.6349C120.041 28.1928 121.155 23.9623 124.323 22.1328C126.422 20.9213 128.819 21.5126 130.369 22.1566M134.307 34.8855C135.193 33.7589 136.077 32.3021 136.429 30.6714M130.454 23.9906C129.121 25.0108 127.411 26.7915 127.411 29.2146C127.411 32.8731 130.518 35.9532 131.619 36.9303C131.836 37.1234 132.163 37.1234 132.38 36.9308C132.542 36.787 132.749 36.5972 132.981 36.3673" stroke="black" stroke-width="0.849614" stroke-miterlimit="10" stroke-linecap="round" stroke-linejoin="round"/>
<path d="M132.085 24.8346C132.302 26.4986 132.989 28.8705 135.087 30.082C138.256 31.9113 142.477 30.7607 143.873 30.2955C144.007 30.2513 144.119 30.1597 144.189 30.0382C144.26 29.9166 144.283 29.7735 144.255 29.6359C144 28.3907 143.133 25.0624 140.858 23.0003M136.429 15.3289C137.977 14.8316 139.634 14.8537 141.03 15.0445" stroke="black" stroke-width="0.849614" stroke-miterlimit="10" stroke-linecap="round" stroke-linejoin="round"/>
<path d="M142.978 15.4375C143.341 15.5349 143.645 15.6295 143.874 15.7054C144.15 15.7972 144.313 16.0804 144.254 16.3653C143.959 17.8074 142.845 22.0379 139.677 23.8674C137.578 25.0789 135.18 24.4876 133.631 23.8436" stroke="black" stroke-width="0.849614" stroke-miterlimit="10" stroke-linecap="round" stroke-linejoin="round"/>
<path d="M132 24.8355C133.014 24.8355 133.836 24.0136 133.836 22.9998C133.836 21.9859 133.014 21.1641 132 21.1641C130.986 21.1641 130.164 21.9859 130.164 22.9998C130.164 24.0136 130.986 24.8355 132 24.8355Z" stroke="black" stroke-width="0.849614" stroke-miterlimit="10" stroke-linecap="round" stroke-linejoin="round"/>
<path d="M132 21.1645V12.8682M133.836 14.5273L132.01 16.0167M133.306 17.2542L132.01 18.3113M130.694 13.1575L132 14.2228M130.41 22.0824L123.225 17.9342M125.58 17.174L125.957 19.4999M127.677 18.9963L127.944 20.6472M122.823 19.2099L124.398 18.6116M130.41 23.9181L123.225 28.0663M123.744 25.6469L125.947 26.4834M126.371 24.7423L127.934 25.3361M124.129 29.0526L124.398 27.389M132 24.836V33.1324M130.164 31.4732L131.99 29.9838M130.694 28.7463L131.99 27.6892M133.306 32.843L132 31.7777M133.59 23.9181L140.775 28.0663M138.42 28.8265L138.043 26.5007M136.323 27.0043L136.056 25.3534M141.177 26.7906L139.601 27.389M133.59 22.0824L140.775 17.9342M140.256 20.3536L138.053 19.5171M137.629 21.2582L136.066 20.6644M139.871 16.9479L139.601 18.6116" stroke="black" stroke-width="0.849614" stroke-miterlimit="10" stroke-linecap="round" stroke-linejoin="round"/>
</g>
<path d="M183.759 27.5613H174.449L172.515 37.2314H168.385L172.974 14.351H177.105L175.203 23.89H184.513L186.414 14.351H190.544L185.955 37.2314H181.825L183.759 27.5613ZM197.832 37.6248C195.515 37.6248 193.767 36.9801 192.587 35.6908C191.429 34.4014 190.85 32.6095 190.85 30.3149C190.85 28.9381 191.068 27.616 191.505 26.3485C191.942 25.0591 192.554 23.9228 193.341 22.9394C194.149 21.956 195.111 21.1802 196.226 20.612C197.362 20.0219 198.629 19.7269 200.028 19.7269C200.705 19.7269 201.394 19.8143 202.093 19.9892C202.792 20.1421 203.426 20.4044 203.994 20.7759C204.563 21.1255 205.032 21.6063 205.404 22.2182C205.775 22.8301 205.961 23.5731 205.961 24.4472C205.961 26.2392 205.076 27.6378 203.306 28.6431C201.558 29.6483 198.75 30.1947 194.882 30.2821C194.816 30.7192 194.783 31.036 194.783 31.2327C194.783 32.1724 195.045 32.9263 195.57 33.4945C196.094 34.0627 196.947 34.3468 198.127 34.3468C198.979 34.3468 199.755 34.1611 200.454 33.7895C201.153 33.418 201.875 32.7734 202.618 31.8555L205.076 33.8879C204.005 35.2646 202.88 36.2371 201.7 36.8053C200.542 37.3516 199.252 37.6248 197.832 37.6248ZM199.766 22.8082C198.673 22.8082 197.744 23.1688 196.979 23.89C196.215 24.6111 195.712 25.5945 195.472 26.8402L195.308 27.6597C196.706 27.5941 197.843 27.4849 198.717 27.3319C199.613 27.1571 200.301 26.9495 200.782 26.7091C201.285 26.4687 201.623 26.1846 201.798 25.8568C201.973 25.529 202.06 25.1575 202.06 24.7423C202.06 24.3489 201.984 24.032 201.831 23.7916C201.7 23.5294 201.525 23.3327 201.306 23.2016C201.088 23.0486 200.837 22.9503 200.552 22.9066C200.29 22.841 200.028 22.8082 199.766 22.8082ZM219.948 37.2314C219.162 37.2314 218.517 37.0238 218.014 36.6086C217.512 36.1934 217.26 35.6143 217.26 34.8713C217.26 34.6965 217.271 34.5107 217.293 34.314C217.337 34.1173 217.37 33.9644 217.391 33.8551L217.49 33.3306H217.326C216.627 34.7292 215.851 35.8001 214.998 36.5431C214.146 37.2642 213.064 37.6248 211.753 37.6248C210.967 37.6248 210.267 37.4828 209.655 37.1987C209.065 36.8927 208.574 36.4666 208.18 35.9202C207.787 35.3739 207.492 34.7292 207.295 33.9862C207.098 33.2432 207 32.4128 207 31.4949C207 29.8341 207.197 28.2934 207.59 26.873C207.984 25.4306 208.53 24.185 209.229 23.136C209.95 22.0652 210.803 21.2348 211.786 20.6448C212.791 20.0329 213.884 19.7269 215.064 19.7269C216.222 19.7269 217.195 20.0329 217.981 20.6448C218.768 21.2567 219.238 22.0543 219.391 23.0377H219.555L220.145 20.1203H224.111L221.325 33.9862H223.39L222.767 37.2314H219.948ZM213.556 34.314C214.19 34.314 214.758 34.1611 215.261 33.8551C215.785 33.5273 216.233 33.1449 216.605 32.7078C217.042 32.227 217.402 31.6807 217.686 31.0688C217.971 30.4351 218.189 29.7685 218.342 29.0692L218.932 26.1518C219.107 25.2777 218.91 24.5456 218.342 23.9555C217.796 23.3437 216.998 23.0377 215.949 23.0377C213.698 23.0377 212.289 24.4472 211.72 27.2663L211.262 29.6265C211.218 29.8669 211.174 30.1619 211.13 30.5115C211.087 30.8612 211.065 31.1671 211.065 31.4294C211.065 32.3035 211.272 33.0028 211.688 33.5273C212.125 34.0518 212.748 34.314 213.556 34.314ZM225.091 37.2314L228.533 20.1203H232.499L231.713 24.0539H231.909C232.106 23.595 232.357 23.136 232.663 22.6771C232.969 22.2182 233.33 21.803 233.745 21.4315C234.182 21.0381 234.663 20.7213 235.187 20.4809C235.734 20.2405 236.346 20.1203 237.023 20.1203H237.908L237.089 24.0211H235.941C234.455 24.0211 233.308 24.338 232.499 24.9717C231.713 25.5836 231.188 26.5561 230.926 27.8891L229.058 37.2314H225.091ZM242.284 37.2314C239.924 37.2314 238.744 36.259 238.744 34.314C238.744 34.1392 238.755 33.9425 238.777 33.724C238.799 33.4836 238.832 33.2432 238.875 33.0028L240.809 23.3655H238.351L238.974 20.1203H240.187C240.864 20.1203 241.312 19.9892 241.531 19.7269C241.771 19.4428 241.946 19.0058 242.055 18.4157L242.645 15.4327H246.349L245.431 20.1203H248.873L248.218 23.3655H244.776L242.645 33.9862H245.89L245.235 37.2314H242.284ZM268.37 20.907H268.173L265.19 25.1356L259.519 32.97L256.831 24.8078L255.586 20.8742H255.422L252.144 37.2314H248.177L252.767 14.351H257.29L260.765 25.6929H260.896L268.829 14.351H273.648L269.058 37.2314H265.092L268.37 20.907ZM286.887 37.2314C286.101 37.2314 285.456 37.0238 284.953 36.6086C284.451 36.1934 284.199 35.6143 284.199 34.8713C284.199 34.6965 284.21 34.5107 284.232 34.314C284.276 34.1173 284.309 33.9644 284.33 33.8551L284.429 33.3306H284.265C283.566 34.7292 282.79 35.8001 281.938 36.5431C281.085 37.2642 280.004 37.6248 278.692 37.6248C277.906 37.6248 277.206 37.4828 276.594 37.1987C276.004 36.8927 275.513 36.4666 275.119 35.9202C274.726 35.3739 274.431 34.7292 274.234 33.9862C274.038 33.2432 273.939 32.4128 273.939 31.4949C273.939 29.8341 274.136 28.2934 274.529 26.873C274.923 25.4306 275.469 24.185 276.168 23.136C276.889 22.0652 277.742 21.2348 278.725 20.6448C279.73 20.0329 280.823 19.7269 282.003 19.7269C283.161 19.7269 284.134 20.0329 284.921 20.6448C285.707 21.2567 286.177 22.0543 286.33 23.0377H286.494L287.084 20.1203H291.05L288.264 33.9862H290.329L289.706 37.2314H286.887ZM280.495 34.314C281.129 34.314 281.697 34.1611 282.2 33.8551C282.724 33.5273 283.172 33.1449 283.544 32.7078C283.981 32.227 284.341 31.6807 284.625 31.0688C284.91 30.4351 285.128 29.7685 285.281 29.0692L285.871 26.1518C286.046 25.2777 285.849 24.5456 285.281 23.9555C284.735 23.3437 283.937 23.0377 282.888 23.0377C280.637 23.0377 279.228 24.4472 278.66 27.2663L278.201 29.6265C278.157 29.8669 278.113 30.1619 278.069 30.5115C278.026 30.8612 278.004 31.1671 278.004 31.4294C278.004 32.3035 278.212 33.0028 278.627 33.5273C279.064 34.0518 279.687 34.314 280.495 34.314ZM296.914 37.2314C294.554 37.2314 293.374 36.259 293.374 34.314C293.374 34.1392 293.385 33.9425 293.407 33.724C293.429 33.4836 293.462 33.2432 293.505 33.0028L295.439 23.3655H292.981L293.604 20.1203H294.816C295.494 20.1203 295.942 19.9892 296.16 19.7269C296.401 19.4428 296.576 19.0058 296.685 18.4157L297.275 15.4327H300.979L300.061 20.1203H303.503L302.848 23.3655H299.406L297.275 33.9862H300.52L299.865 37.2314H296.914ZM309.499 37.6248C308.559 37.6248 307.685 37.4828 306.877 37.1987C306.09 36.8927 305.402 36.4447 304.812 35.8547C304.222 35.2646 303.763 34.5107 303.435 33.5929C303.107 32.675 302.943 31.5933 302.943 30.3476C302.943 28.8398 303.162 27.4412 303.599 26.1518C304.036 24.8406 304.648 23.7152 305.434 22.7755C306.221 21.8139 307.161 21.0709 308.253 20.5464C309.346 20.0001 310.537 19.7269 311.826 19.7269C313.422 19.7269 314.755 20.1203 315.826 20.907C316.918 21.6937 317.585 22.7318 317.825 24.0211L314.482 25.3323C314.241 24.6111 313.924 24.043 313.531 23.6277C313.138 23.2125 312.493 23.0049 311.597 23.0049C309.455 23.0049 308.133 24.3271 307.631 26.9713L307.041 29.8232C306.931 30.3258 306.877 30.7956 306.877 31.2327C306.877 32.1505 307.117 32.9045 307.598 33.4945C308.079 34.0627 308.833 34.3468 309.86 34.3468C310.712 34.3468 311.4 34.1064 311.925 33.6256C312.471 33.123 313.007 32.4019 313.531 31.4622L316.58 32.9045C315.837 34.4561 314.864 35.6362 313.662 36.4447C312.482 37.2314 311.094 37.6248 309.499 37.6248ZM322.748 12.9742H326.715L324.551 23.9228H324.715C325.349 22.5679 326.103 21.5298 326.977 20.8087C327.873 20.0875 328.977 19.7269 330.288 19.7269C331.665 19.7269 332.703 20.1203 333.402 20.907C334.123 21.6937 334.484 22.8082 334.484 24.2506C334.484 24.6221 334.451 25.0045 334.385 25.3979C334.342 25.7694 334.276 26.1737 334.189 26.6107L332.713 33.9862H334.615L333.959 37.2314H331.206C330.419 37.2314 329.796 37.0348 329.337 36.6414C328.878 36.2262 328.649 35.6471 328.649 34.9041C328.649 34.5981 328.682 34.2922 328.747 33.9862L330.157 26.9385C330.288 26.3266 330.353 25.7257 330.353 25.1356C330.353 24.5019 330.2 24.0102 329.894 23.6605C329.588 23.289 329.075 23.1033 328.354 23.1033C327.786 23.1033 327.261 23.2453 326.78 23.5294C326.3 23.7916 325.862 24.1522 325.469 24.6111C325.032 25.1138 324.65 25.671 324.322 26.2829C324.016 26.8948 323.797 27.5395 323.666 28.2169L321.863 37.2314H317.897L322.748 12.9742Z" fill="white"/>
<defs>
<linearGradient id="paint0_linear_1023_31853" x1="155.5" y1="-8.90393e-07" x2="119.5" y2="30" gradientUnits="userSpaceOnUse">
<stop stop-color="#FF3720"/>
<stop offset="1" stop-color="#610D1F"/>
</linearGradient>
<clipPath id="clip0_1023_31853">
<rect width="29" height="29" fill="white" transform="translate(117.5 8.5)"/>
</clipPath>
</defs>
</svg>
