<svg width="56" height="51" viewBox="0 0 56 51" fill="none" xmlns="http://www.w3.org/2000/svg">
<path d="M28 50.4625L24.0125 46.8875C19.3833 42.7167 15.5562 39.1187 12.5312 36.0937C9.50625 33.0687 7.1 30.3531 5.3125 27.9469C3.525 25.5406 2.27604 23.3292 1.56563 21.3125C0.855208 19.2958 0.5 17.2333 0.5 15.125C0.5 10.8167 1.94375 7.21875 4.83125 4.33125C7.71875 1.44375 11.3167 0 15.625 0C18.0083 0 20.2771 0.504167 22.4312 1.5125C24.5854 2.52083 26.4417 3.94167 28 5.775C29.5583 3.94167 31.4146 2.52083 33.5688 1.5125C35.7229 0.504167 37.9917 0 40.375 0C44.6833 0 48.2813 1.44375 51.1688 4.33125C54.0563 7.21875 55.5 10.8167 55.5 15.125C55.5 17.2333 55.1448 19.2958 54.4344 21.3125C53.724 23.3292 52.475 25.5406 50.6875 27.9469C48.9 30.3531 46.4938 33.0687 43.4688 36.0937C40.4437 39.1187 36.6167 42.7167 31.9875 46.8875L28 50.4625Z" fill="white"/>
<g clip-path="url(#clip0_1023_31931)">
<path d="M21.3649 10.7452C21.2272 10.7169 21.084 10.74 20.9623 10.8103C20.8406 10.8805 20.7489 10.993 20.7046 11.1264C20.2394 12.5228 19.0888 16.7439 20.9181 19.9123C22.9028 23.35 27.9999 22.9998 27.9999 22.9998C27.9999 22.9998 30.8518 18.7607 28.867 15.323C27.0377 12.1546 22.8068 11.0405 21.3649 10.7452Z" fill="#FFB9B9"/>
<path d="M14.0697 22.6193C13.9763 22.7243 13.9248 22.86 13.9248 23.0005C13.9248 23.141 13.9763 23.2766 14.0697 23.3817C15.0464 24.4828 18.1267 27.5898 21.7852 27.5898C25.7547 27.5898 27.9999 23.0005 27.9999 23.0005C27.9999 23.0005 25.7547 18.4111 21.7852 18.4111C18.1267 18.4111 15.0464 21.5182 14.0697 22.6193Z" fill="#FFB9B9"/>
<path d="M20.7046 34.8737C20.7489 35.007 20.8406 35.1195 20.9623 35.1898C21.084 35.26 21.2273 35.2832 21.3649 35.2549C22.8068 34.9596 27.0378 33.8454 28.867 30.677C30.8518 27.2393 27.9999 23.0003 27.9999 23.0003C27.9999 23.0003 22.9029 22.65 20.9181 26.0877C19.0888 29.2562 20.2394 33.4773 20.7046 34.8737Z" fill="#FFB9B9"/>
<path d="M34.635 35.2549C34.7726 35.2832 34.9159 35.26 35.0375 35.1898C35.1592 35.1195 35.2509 35.007 35.2952 34.8737C35.7604 33.4773 36.911 29.2561 35.0818 26.0877C33.097 22.65 27.9999 23.0003 27.9999 23.0003C27.9999 23.0003 25.1481 27.2393 27.1328 30.677C28.9621 33.8454 33.1931 34.9596 34.635 35.2549Z" fill="#FFB9B9"/>
<path d="M41.9303 23.3817C42.0236 23.2766 42.0751 23.141 42.0751 23.0005C42.0751 22.86 42.0236 22.7243 41.9303 22.6193C40.9536 21.5182 37.8732 18.4111 34.2147 18.4111C30.2452 18.4111 28 23.0005 28 23.0005C28 23.0005 30.2452 27.5898 34.2147 27.5898C37.8732 27.5898 40.9535 24.4827 41.9303 23.3817Z" fill="#FFB9B9"/>
<path d="M35.2952 11.1264C35.2509 10.993 35.1592 10.8805 35.0375 10.8103C34.9159 10.74 34.7726 10.7169 34.635 10.7452C33.1931 11.0405 28.9621 12.1546 27.1328 15.323C25.1481 18.7607 27.9999 22.9998 27.9999 22.9998C27.9999 22.9998 33.097 23.35 35.0818 19.9123C36.911 16.7439 35.7604 12.5228 35.2952 11.1264Z" fill="#FFB9B9"/>
<path d="M27.6193 9.06935C26.6685 9.91285 24.2194 12.3272 23.5707 15.3282C24.0309 15.476 24.4815 15.6694 24.9126 15.9182C28.3503 17.903 28 23 28 23C28 23 32.5893 20.7548 32.5893 16.7853C32.5893 13.1268 29.4824 10.0465 28.3813 9.06975C28.2763 8.97645 28.1408 8.92488 28.0004 8.9248C27.8599 8.92473 27.7244 8.97616 27.6193 9.06935Z" fill="#FF4F41"/>
<path d="M29.8174 21.7944C29.6873 19.8185 29.0022 16.1596 25.8304 14.3284C25.3092 14.0274 24.7506 13.7812 24.1576 13.5889C23.9067 14.1393 23.7017 14.7217 23.5707 15.3281C24.0309 15.4759 24.4815 15.6693 24.9126 15.9181C28.3502 17.9028 28 22.9999 28 22.9999C28 22.9999 28.8494 22.584 29.8174 21.7944Z" fill="#680F20"/>
<path d="M15.7453 16.3639C16.0004 17.6091 16.8668 20.9373 19.1414 22.9996C19.4994 22.675 19.8922 22.3814 20.3232 22.1325C23.7609 20.1478 28 22.9996 28 22.9996C28 22.9996 28.3503 17.9026 24.9126 15.9178C21.7442 14.0886 17.5231 15.2391 16.1266 15.7043C15.9934 15.7485 15.8809 15.8401 15.8106 15.9617C15.7404 16.0832 15.7171 16.2264 15.7453 16.3639Z" fill="#FF4F41"/>
<path d="M27.8647 20.8238C26.0884 19.9485 22.577 18.7124 19.4053 20.5436C18.8841 20.8445 18.3916 21.2052 17.9285 21.6225C18.2797 22.1151 18.6816 22.5837 19.1413 23.0005C19.4993 22.6759 19.8921 22.3823 20.3231 22.1334C23.7608 20.1486 27.9999 23.0005 27.9999 23.0005C27.9999 23.0005 28.0645 22.0569 27.8647 20.8238Z" fill="#680F20"/>
<path d="M16.1259 30.2952C17.3318 30.6969 20.6473 31.6107 23.5706 30.672C23.4685 30.1995 23.4106 29.7126 23.4106 29.2149C23.4106 25.2454 27.9999 23.0002 27.9999 23.0002C27.9999 23.0002 23.7609 20.1483 20.3232 22.1331C17.1548 23.9623 16.0407 28.1932 15.7453 29.6352C15.717 29.7727 15.7401 29.9158 15.8102 30.0375C15.8803 30.1591 15.9927 30.2508 16.1259 30.2952Z" fill="#FF4F41"/>
<path d="M26.0471 22.0293C24.401 23.1299 21.5748 25.5527 21.5748 29.2152C21.5748 29.817 21.6409 30.4239 21.7707 31.0336C22.373 30.9757 22.9797 30.862 23.5705 30.6723C23.4684 30.1998 23.4105 29.7129 23.4105 29.2152C23.4105 25.2457 27.9998 23.0005 27.9998 23.0005C27.9998 23.0005 27.2149 22.4727 26.0471 22.0293Z" fill="#680F20"/>
<path d="M28.3805 36.9307C29.3314 36.0872 31.7805 33.6728 32.4292 30.6718C31.9689 30.524 31.5183 30.3306 31.0873 30.0818C27.6496 28.0971 27.9999 23 27.9999 23C27.9999 23 23.4105 25.2452 23.4105 29.2147C23.4105 32.8732 26.5175 35.9535 27.6186 36.9303C27.7236 37.0236 27.8591 37.0751 27.9995 37.0752C28.1399 37.0753 28.2755 37.0239 28.3805 36.9307Z" fill="#FF4F41"/>
<path d="M26.1825 24.2055C26.3126 26.1813 26.9977 29.8403 30.1695 31.6715C30.6907 31.9724 31.2493 32.2187 31.8423 32.411C32.0932 31.8606 32.2982 31.2782 32.4292 30.6717C31.969 30.524 31.5184 30.3306 31.0873 30.0818C27.6497 28.097 27.9999 23 27.9999 23C27.9999 23 27.1504 23.4159 26.1825 24.2055Z" fill="#680F20"/>
<path d="M40.2547 29.6357C39.9996 28.3905 39.1333 25.0624 36.8587 23C36.5006 23.3247 36.1078 23.6182 35.6768 23.8671C32.2391 25.8519 28 23 28 23C28 23 27.6498 28.0971 31.0875 30.0818C34.2558 31.911 38.4769 30.7605 39.8734 30.2953C40.0067 30.2511 40.1191 30.1595 40.1894 30.038C40.2597 29.9164 40.2829 29.7733 40.2547 29.6357Z" fill="#FF4F41"/>
<path d="M28.1352 25.1767C29.9114 26.052 33.4228 27.2881 36.5945 25.4569C37.1157 25.156 37.6083 24.7953 38.0714 24.378C37.7202 23.8855 37.3183 23.4168 36.8586 23C36.5005 23.3247 36.1078 23.6182 35.6767 23.8671C32.239 25.8519 27.9999 23 27.9999 23C27.9999 23 27.9354 23.9436 28.1352 25.1767Z" fill="#680F20"/>
<path d="M39.8739 15.7053C38.668 15.3036 35.3526 14.3898 32.4292 15.3285C32.5313 15.801 32.5892 16.2879 32.5892 16.7856C32.5892 20.7551 27.9999 23.0003 27.9999 23.0003C27.9999 23.0003 32.2389 25.8522 35.6767 23.8674C38.845 22.0382 39.9591 17.8073 40.2545 16.3653C40.2828 16.2278 40.2597 16.0847 40.1896 15.963C40.1195 15.8414 40.0071 15.7497 39.8739 15.7053Z" fill="#FF4F41"/>
<path d="M29.9527 23.9711C31.5988 22.8704 34.425 20.4476 34.425 16.7852C34.425 16.1833 34.3589 15.5764 34.2291 14.9668C33.6268 15.0247 33.0201 15.1384 32.4293 15.3281C32.5314 15.8006 32.5893 16.2875 32.5893 16.7852C32.5893 20.7547 28 22.9999 28 22.9999C28 22.9999 28.7849 23.5276 29.9527 23.9711Z" fill="#680F20"/>
<path d="M27.9999 24.8355C29.0137 24.8355 29.8356 24.0136 29.8356 22.9998C29.8356 21.9859 29.0137 21.1641 27.9999 21.1641C26.9861 21.1641 26.1642 21.9859 26.1642 22.9998C26.1642 24.0136 26.9861 24.8355 27.9999 24.8355Z" fill="#610D20"/>
<path d="M28.8226 21.3594C28.9509 21.6146 29.0176 21.8964 29.0173 22.182C29.0173 23.1958 28.1955 24.0177 27.1816 24.0177C26.896 24.018 26.6142 23.9513 26.359 23.823C26.6607 24.4237 27.282 24.8361 28 24.8361C29.0138 24.8361 29.8357 24.0142 29.8357 23.0004C29.8357 22.2824 29.4232 21.6611 28.8226 21.3594Z" fill="#610D20"/>
<path d="M25.0518 11.9963C23.5562 11.2584 22.0986 10.8957 21.3645 10.7454C21.227 10.7171 21.0838 10.7402 20.9622 10.8104C20.8406 10.8806 20.749 10.993 20.7047 11.1262C20.4678 11.837 20.053 13.2803 19.9445 14.9444M16.9966 20.0511C15.6097 20.9773 14.5668 22.0584 14.0696 22.6189C13.9763 22.7239 13.9248 22.8594 13.9248 22.9998C13.9248 23.1403 13.9763 23.2758 14.0695 23.3808C14.5666 23.9413 15.6091 25.0223 16.996 25.9482M19.9446 31.0545C20.0534 32.7188 20.4681 34.1624 20.705 34.8733C20.7492 35.0066 20.8408 35.1189 20.9624 35.1892C21.084 35.2594 21.2271 35.2826 21.3647 35.2543C22.0987 35.1041 23.556 34.7417 25.0514 34.0036M30.948 34.0032C32.4436 34.7411 33.9012 35.1038 34.6353 35.2541C34.7728 35.2824 34.9159 35.2593 35.0375 35.1891C35.1591 35.1189 35.2508 35.0065 35.295 34.8733C35.532 34.1625 35.9468 32.7192 36.0553 31.0551M39.0032 25.9484C40.3901 25.0221 41.4329 23.9411 41.9302 23.3805C42.0235 23.2755 42.075 23.14 42.075 22.9996C42.075 22.8592 42.0235 22.7236 41.9303 22.6187C41.4332 22.0581 40.3906 20.9772 39.0038 20.0512M36.0551 14.9449C35.9464 13.2807 35.5316 11.837 35.2948 11.1261C35.2505 10.9929 35.1589 10.8805 35.0373 10.8103C34.9157 10.7401 34.7726 10.7169 34.6351 10.7451C33.9011 10.8953 32.4437 11.2577 30.9483 11.9958" stroke="black" stroke-width="0.849614" stroke-miterlimit="10" stroke-linecap="round" stroke-linejoin="round"/>
<path d="M29.5459 22.0093C30.8786 20.9893 32.5892 19.2087 32.5892 16.7854C32.5892 13.1269 29.4822 10.0466 28.3811 9.06981C28.2762 8.97648 28.1407 8.92489 28.0003 8.9248C27.8599 8.92472 27.7243 8.97615 27.6193 9.06936C26.6684 9.91285 24.2192 12.3273 23.5707 15.3284" stroke="black" stroke-width="0.849614" stroke-miterlimit="10" stroke-linecap="round" stroke-linejoin="round"/>
<path d="M27.915 21.1653C27.698 19.5013 27.0112 17.1294 24.9126 15.9179C21.7443 14.0886 17.5232 15.2392 16.1267 15.7044C15.9934 15.7486 15.881 15.8401 15.8107 15.9617C15.7404 16.0833 15.7171 16.2264 15.7453 16.3639C16.0004 17.6092 16.8667 20.9375 19.1414 22.9996M18.8264 30.9356C20.2514 31.144 21.9699 31.1853 23.5706 30.671" stroke="black" stroke-width="0.849614" stroke-miterlimit="10" stroke-linecap="round" stroke-linejoin="round"/>
<path d="M16.8824 30.5247C16.5805 30.4409 16.325 30.3611 16.1262 30.2948C15.8498 30.203 15.6872 29.9198 15.7456 29.6349C16.0407 28.1928 17.1548 23.9623 20.3233 22.1328C22.4218 20.9213 24.8195 21.5126 26.3686 22.1566M30.3068 34.8855C31.1933 33.7589 32.0769 32.3021 32.4292 30.6714M26.4536 23.9906C25.1214 25.0108 23.4108 26.7915 23.4108 29.2146C23.4108 32.8731 26.5176 35.9532 27.6187 36.9303C27.8362 37.1234 28.163 37.1234 28.3805 36.9308C28.5425 36.787 28.7486 36.5972 28.9814 36.3673" stroke="black" stroke-width="0.849614" stroke-miterlimit="10" stroke-linecap="round" stroke-linejoin="round"/>
<path d="M28.085 24.8346C28.302 26.4986 28.9887 28.8705 31.0873 30.082C34.2557 31.9113 38.4768 30.7607 39.8732 30.2955C40.0065 30.2513 40.119 30.1597 40.1892 30.0382C40.2595 29.9166 40.2828 29.7735 40.2546 29.6359C39.9996 28.3907 39.1332 25.0624 36.8585 23.0003M32.4293 15.3289C33.9767 14.8316 35.634 14.8537 37.0302 15.0445" stroke="black" stroke-width="0.849614" stroke-miterlimit="10" stroke-linecap="round" stroke-linejoin="round"/>
<path d="M38.9781 15.4375C39.3412 15.5349 39.6453 15.6295 39.8736 15.7054C40.15 15.7972 40.3126 16.0804 40.2542 16.3653C39.9591 17.8074 38.845 22.0379 35.6765 23.8674C33.578 25.0789 31.1804 24.4876 29.6312 23.8436" stroke="black" stroke-width="0.849614" stroke-miterlimit="10" stroke-linecap="round" stroke-linejoin="round"/>
<path d="M27.9999 24.8355C29.0137 24.8355 29.8356 24.0136 29.8356 22.9998C29.8356 21.9859 29.0137 21.1641 27.9999 21.1641C26.9861 21.1641 26.1642 21.9859 26.1642 22.9998C26.1642 24.0136 26.9861 24.8355 27.9999 24.8355Z" stroke="black" stroke-width="0.849614" stroke-miterlimit="10" stroke-linecap="round" stroke-linejoin="round"/>
<path d="M27.9999 21.1645V12.8682M29.8356 14.5273L28.0099 16.0167M29.3059 17.2542L28.0099 18.3113M26.694 13.1575L27.9999 14.2228M26.4101 22.0824L19.2253 17.9342M21.58 17.174L21.9569 19.4999M23.6766 18.9963L23.9442 20.6472M18.8229 19.2099L20.3984 18.6116M26.4101 23.9181L19.2253 28.0663M19.7443 25.6469L21.947 26.4834M22.3707 24.7423L23.9342 25.3361M20.1288 29.0526L20.3984 27.389M27.9999 24.836V33.1324M26.1642 31.4732L27.99 29.9838M26.694 28.7463L27.99 27.6892M29.3059 32.843L27.9999 31.7777M29.5897 23.9181L36.7746 28.0663M34.4198 28.8265L34.0429 26.5007M32.3232 27.0043L32.0557 25.3534M37.1769 26.7906L35.6014 27.389M29.5897 22.0824L36.7746 17.9342M36.2555 20.3536L34.0528 19.5171M33.6292 21.2582L32.0656 20.6644M35.871 16.9479L35.6014 18.6116" stroke="black" stroke-width="0.849614" stroke-miterlimit="10" stroke-linecap="round" stroke-linejoin="round"/>
</g>
<defs>
<clipPath id="clip0_1023_31931">
<rect width="29" height="29" fill="white" transform="translate(13.5 8.5)"/>
</clipPath>
</defs>
</svg>
