<svg width="9" height="16" viewBox="0 0 9 16" fill="none" xmlns="http://www.w3.org/2000/svg">
<path d="M8.66328 13.5492C8.8394 13.7253 8.93835 13.9642 8.93835 14.2133C8.93835 14.4623 8.8394 14.7012 8.66328 14.8773C8.48716 15.0534 8.24829 15.1524 7.99922 15.1524C7.75015 15.1524 7.51128 15.0534 7.33516 14.8773L1.08516 8.62733C0.997757 8.54023 0.92841 8.43674 0.881092 8.32278C0.833775 8.20883 0.809418 8.08665 0.809418 7.96327C0.809418 7.83988 0.833775 7.7177 0.881092 7.60375C0.92841 7.48979 0.997757 7.3863 1.08516 7.2992L7.33516 1.0492C7.51128 0.873083 7.75015 0.774139 7.99922 0.774139C8.24829 0.774139 8.48716 0.873083 8.66328 1.0492C8.8394 1.22532 8.93835 1.46419 8.93835 1.71327C8.93835 1.96234 8.8394 2.20121 8.66328 2.37733L3.07813 7.96248L8.66328 13.5492Z" fill="black"/>
<path d="M8.66328 13.5492C8.8394 13.7253 8.93835 13.9642 8.93835 14.2133C8.93835 14.4623 8.8394 14.7012 8.66328 14.8773C8.48716 15.0534 8.24829 15.1524 7.99922 15.1524C7.75015 15.1524 7.51128 15.0534 7.33516 14.8773L1.08516 8.62733C0.997757 8.54023 0.92841 8.43674 0.881092 8.32278C0.833775 8.20883 0.809418 8.08665 0.809418 7.96327C0.809418 7.83988 0.833775 7.7177 0.881092 7.60375C0.92841 7.48979 0.997757 7.3863 1.08516 7.2992L7.33516 1.0492C7.51128 0.873083 7.75015 0.774139 7.99922 0.774139C8.24829 0.774139 8.48716 0.873083 8.66328 1.0492C8.8394 1.22532 8.93835 1.46419 8.93835 1.71327C8.93835 1.96234 8.8394 2.20121 8.66328 2.37733L3.07813 7.96248L8.66328 13.5492Z" fill="white" fill-opacity="0.9"/>
</svg>
