<svg width="241" height="50" viewBox="0 0 241 50" fill="none" xmlns="http://www.w3.org/2000/svg">
<g clip-path="url(#clip0_3507_14885)">
<path d="M43.1987 42.6998C52.9504 32.9482 52.9314 17.1188 43.1564 7.34376C33.3813 -2.43134 17.5519 -2.45029 7.8002 7.30128C-0.0415007 15.143 -1.56347 26.9144 3.22364 36.3078C3.44317 36.7386 3.49297 37.2359 3.36788 37.7028L0.799906 47.2865C0.407231 48.7519 1.74815 50.0927 3.21348 49.7001L12.7972 47.1321C13.2642 47.007 13.7615 47.0568 14.1922 47.2764C23.5856 52.0635 35.357 50.5415 43.1987 42.6998Z" fill="url(#paint0_linear_3507_14885)"/>
<g filter="url(#filter0_f_3507_14885)">
<ellipse cx="30.0898" cy="38.623" rx="9.375" ry="10.791" fill="url(#paint1_linear_3507_14885)"/>
</g>
<path d="M33.4425 48.6173L35.2168 46.9238C38.7525 45.7371 40.3839 45.5146 43.1987 42.6998C47.5056 38.393 49.9052 32.9005 50.4016 27.2678L38.438 15.3041L38.4379 15.304C35.0043 11.8704 29.4374 11.8707 26.0041 15.3045L25.5004 15.8083L25.4792 15.7871L25.4102 15.7181L25.3411 15.649L25.2721 15.58L25.203 15.5109L25.134 15.4419L25.065 15.3729L24.9959 15.3038C21.5624 11.8703 15.9956 11.8704 12.5623 15.3041C9.12911 18.7375 9.12921 24.304 12.5626 27.7373L12.6317 27.8063" fill="url(#paint2_linear_3507_14885)"/>
<path d="M38.438 15.3042C35.0043 11.8705 29.4374 11.8708 26.0041 15.3046L25.5004 15.8084L24.9957 15.3037C21.5622 11.8702 15.9954 11.8703 12.5621 15.304C9.1289 18.7374 9.129 24.3039 12.5624 27.7372L13.0666 28.2414L24.0777 39.2516C24.8635 40.0374 26.1374 40.0373 26.9231 39.2515L38.4381 27.7366C41.8711 24.3035 41.8711 18.7373 38.438 15.3042Z" fill="url(#paint3_radial_3507_14885)"/>
<path d="M25.0614 45.6507C19.2516 39.8409 19.2629 30.4103 25.0866 24.5865C30.9104 18.7628 40.341 18.7515 46.1508 24.5612C50.8227 29.2331 51.7294 36.2462 48.8774 41.8425C48.747 42.0994 48.7164 42.3955 48.7914 42.6736L50.3213 48.3834C50.5552 49.2564 49.7564 50.0553 48.8834 49.8213L43.1738 48.2914C42.8956 48.2164 42.5995 48.247 42.3426 48.3773C36.7462 51.2294 29.7332 50.3226 25.0614 45.6507Z" fill="url(#paint4_linear_3507_14885)"/>
<path d="M27.8976 29.3292C29.9433 27.2835 33.2599 27.2837 35.3054 29.3294L35.6055 29.6296L35.9061 29.3289C37.9517 27.2833 41.2682 27.2834 43.3138 29.3291C45.3592 31.3746 45.3591 34.6911 43.3136 36.7365L43.0132 37.0369L37.0282 43.0214C36.2425 43.8072 34.9685 43.8071 34.1828 43.0213L27.8976 36.7362C25.8522 34.6908 25.8522 31.3745 27.8976 29.3292Z" fill="#EDF3F7"/>
</g>
<path d="M66.7933 37.3934C64.9358 37.3934 63.2859 37.0874 61.8436 36.4755C60.4231 35.8418 59.3086 34.7819 58.5 33.2959L61.6469 30.8701C62.2369 31.8535 62.9472 32.5747 63.7776 33.0336C64.608 33.4707 65.6133 33.6892 66.7933 33.6892C68.3668 33.6892 69.5578 33.3396 70.3664 32.6403C71.1968 31.9191 71.612 31.0231 71.612 29.9523C71.612 29.1874 71.3498 28.5865 70.8253 28.1494C70.3227 27.7123 69.6343 27.4064 68.7601 27.2316L67.0228 26.871C65.3838 26.5213 64.0835 25.8767 63.122 24.937C62.1823 23.9973 61.7124 22.6533 61.7124 20.905C61.7124 19.8998 61.9091 18.9601 62.3025 18.0859C62.7177 17.2118 63.2859 16.4579 64.007 15.8241C64.7501 15.1685 65.646 14.655 66.695 14.2835C67.744 13.912 68.924 13.7262 70.2352 13.7262C71.9617 13.7262 73.4805 14.0103 74.7917 14.5785C76.1247 15.1467 77.1737 15.9552 77.9385 17.0042L74.9556 19.6594C74.3874 18.8945 73.7318 18.3373 72.9888 17.9876C72.2457 17.6161 71.2733 17.4303 70.0713 17.4303C68.7601 17.4303 67.733 17.7144 66.99 18.2826C66.247 18.829 65.8755 19.5829 65.8755 20.5444C65.8755 21.3093 66.105 21.8993 66.5639 22.3146C67.0228 22.7079 67.7112 23.0029 68.629 23.1996L70.268 23.5274C71.9944 23.8989 73.3603 24.5655 74.3655 25.527C75.3708 26.4885 75.8734 27.8325 75.8734 29.5589C75.8734 30.5423 75.6658 31.5039 75.2506 32.4436C74.8572 33.3833 74.2672 34.2246 73.4805 34.9676C72.7156 35.6888 71.765 36.2788 70.6286 36.7378C69.5141 37.1748 68.2357 37.3934 66.7933 37.3934ZM80.9873 37C80.1351 37 79.4576 36.7815 78.955 36.3444C78.4742 35.8855 78.2338 35.2845 78.2338 34.5415C78.2338 34.4104 78.2338 34.3011 78.2338 34.2137C78.2557 34.1044 78.2885 33.9515 78.3322 33.7548L82.528 12.7428H86.4944L82.2985 33.7548H84.4948L83.872 37H80.9873ZM99.5201 37C98.7334 37 98.0887 36.7924 97.5861 36.3772C97.0834 35.962 96.8321 35.3829 96.8321 34.6398C96.8321 34.465 96.843 34.2793 96.8649 34.0826C96.9086 33.8859 96.9414 33.7329 96.9632 33.6237L97.0616 33.0992H96.8977C96.1984 34.4978 95.4226 35.5686 94.5703 36.3116C93.718 37.0328 92.6363 37.3934 91.3251 37.3934C90.5384 37.3934 89.839 37.2513 89.2272 36.9672C88.6371 36.6613 88.1454 36.2351 87.7521 35.6888C87.3587 35.1425 87.0637 34.4978 86.867 33.7548C86.6703 33.0118 86.572 32.1813 86.572 31.2635C86.572 29.6026 86.7687 28.062 87.162 26.6415C87.5554 25.1992 88.1017 23.9536 88.801 22.9046C89.5222 21.8338 90.3745 21.0034 91.3579 20.4133C92.3631 19.8014 93.4558 19.4955 94.6359 19.4955C95.7941 19.4955 96.7666 19.8014 97.5533 20.4133C98.34 21.0252 98.8098 21.8229 98.9628 22.8063H99.1267L99.7168 19.8888H103.683L100.897 33.7548H102.962L102.339 37H99.5201ZM93.128 34.0826C93.7617 34.0826 94.3299 33.9296 94.8325 33.6237C95.357 33.2959 95.805 32.9134 96.1765 32.4764C96.6136 31.9956 96.9742 31.4493 97.2583 30.8374C97.5423 30.2036 97.7609 29.5371 97.9139 28.8378L98.5039 25.9204C98.6787 25.0462 98.482 24.3141 97.9139 23.7241C97.3675 23.1122 96.5699 22.8063 95.5209 22.8063C93.27 22.8063 91.8605 24.2158 91.2923 27.0349L90.8334 29.395C90.7897 29.6354 90.746 29.9304 90.7023 30.2801C90.6585 30.6298 90.6367 30.9357 90.6367 31.1979C90.6367 32.0721 90.8443 32.7714 91.2595 33.2959C91.6966 33.8203 92.3194 34.0826 93.128 34.0826ZM107.845 37L105.583 19.8888H109.517L110.271 26.9038L110.828 33.3942H111.025L113.975 26.9038L117.449 19.8888H121.711L112.664 37H107.845ZM126.428 17.3976C125.707 17.3976 125.182 17.2555 124.855 16.9714C124.527 16.6873 124.363 16.3158 124.363 15.8569C124.363 15.5291 124.418 15.1139 124.527 14.6113C124.658 14.0649 124.909 13.5951 125.281 13.2017C125.674 12.7865 126.341 12.5789 127.28 12.5789C128.002 12.5789 128.526 12.7209 128.854 13.005C129.182 13.2891 129.346 13.6606 129.346 14.1196C129.346 14.4474 129.291 14.8626 129.182 15.3652C129.05 15.9115 128.788 16.3923 128.395 16.8075C128.023 17.2009 127.368 17.3976 126.428 17.3976ZM123.74 37C122.91 37 122.243 36.7815 121.741 36.3444C121.26 35.8855 121.019 35.2845 121.019 34.5415C121.019 34.323 121.052 34.0498 121.118 33.722L123.871 19.8888H127.838L125.084 33.7548H127.149L126.494 37H123.74ZM135.946 37.3934C135.006 37.3934 134.132 37.2513 133.323 36.9672C132.536 36.6613 131.848 36.2133 131.258 35.6232C130.668 35.0332 130.209 34.2793 129.881 33.3614C129.553 32.4436 129.39 31.3618 129.39 30.1162C129.39 28.6083 129.608 27.2097 130.045 25.9204C130.482 24.6092 131.094 23.4837 131.881 22.544C132.668 21.5825 133.607 20.8395 134.7 20.315C135.793 19.7686 136.984 19.4955 138.273 19.4955C139.868 19.4955 141.201 19.8888 142.272 20.6756C143.365 21.4623 144.031 22.5003 144.272 23.7897L140.928 25.1009C140.688 24.3797 140.371 23.8115 139.978 23.3963C139.584 22.9811 138.939 22.7735 138.043 22.7735C135.902 22.7735 134.58 24.0956 134.077 26.7399L133.487 29.5917C133.378 30.0943 133.323 30.5642 133.323 31.0013C133.323 31.9191 133.564 32.673 134.044 33.2631C134.525 33.8313 135.279 34.1154 136.306 34.1154C137.158 34.1154 137.847 33.875 138.371 33.3942C138.918 32.8916 139.453 32.1704 139.978 31.2307L143.026 32.673C142.283 34.2246 141.311 35.4047 140.109 36.2133C138.929 37 137.541 37.3934 135.946 37.3934ZM149.129 14.1196H156.275C158.92 14.1196 160.996 14.8516 162.504 16.3158C164.033 17.7581 164.798 19.9107 164.798 22.7735C164.798 24.7184 164.536 26.5541 164.011 28.2805C163.487 30.0069 162.722 31.5148 161.717 32.8042C160.733 34.0935 159.499 35.1206 158.013 35.8855C156.548 36.6285 154.866 37 152.965 37H144.54L149.129 14.1196ZM153.26 33.3286C154.899 33.3286 156.286 32.8369 157.423 31.8535C158.559 30.8483 159.324 29.3513 159.717 27.3627L160.373 24.0847C160.438 23.735 160.482 23.3854 160.504 23.0357C160.548 22.6861 160.569 22.391 160.569 22.1507C160.569 20.6428 160.198 19.5392 159.455 18.8399C158.712 18.1406 157.718 17.7909 156.472 17.7909H152.538L149.392 33.3286H153.26ZM165.744 37L169.186 19.8888H173.152L172.365 23.8224H172.562C172.759 23.3635 173.01 22.9046 173.316 22.4457C173.622 21.9868 173.983 21.5715 174.398 21.2C174.835 20.8067 175.316 20.4898 175.84 20.2494C176.386 20.009 176.998 19.8888 177.676 19.8888H178.561L177.741 23.7897H176.594C175.108 23.7897 173.961 24.1065 173.152 24.7403C172.365 25.3522 171.841 26.3246 171.579 27.6577L169.71 37H165.744ZM185.047 37.3934C182.731 37.3934 180.983 36.7487 179.803 35.4593C178.644 34.17 178.065 32.378 178.065 30.0834C178.065 28.7067 178.284 27.3845 178.721 26.117C179.158 24.8277 179.77 23.6913 180.557 22.7079C181.365 21.7245 182.327 20.9487 183.441 20.3805C184.578 19.7905 185.845 19.4955 187.244 19.4955C187.921 19.4955 188.61 19.5829 189.309 19.7577C190.008 19.9107 190.642 20.1729 191.21 20.5444C191.778 20.8941 192.248 21.3749 192.62 21.9868C192.991 22.5987 193.177 23.3417 193.177 24.2158C193.177 26.0078 192.292 27.4064 190.522 28.4116C188.773 29.4169 185.965 29.9632 182.097 30.0506C182.032 30.4877 181.999 30.8046 181.999 31.0013C181.999 31.941 182.261 32.6949 182.786 33.2631C183.31 33.8313 184.162 34.1154 185.342 34.1154C186.195 34.1154 186.971 33.9296 187.67 33.5581C188.369 33.1866 189.09 32.5419 189.833 31.6241L192.292 33.6564C191.221 35.0332 190.096 36.0057 188.915 36.5739C187.757 37.1202 186.468 37.3934 185.047 37.3934ZM186.981 22.5768C185.889 22.5768 184.96 22.9374 184.195 23.6585C183.43 24.3797 182.928 25.3631 182.687 26.6087L182.523 27.4282C183.922 27.3627 185.058 27.2534 185.932 27.1004C186.828 26.9256 187.517 26.718 187.998 26.4776C188.5 26.2372 188.839 25.9531 189.014 25.6253C189.189 25.2975 189.276 24.926 189.276 24.5108C189.276 24.1175 189.2 23.8006 189.047 23.5602C188.915 23.298 188.741 23.1013 188.522 22.9702C188.304 22.8172 188.052 22.7188 187.768 22.6751C187.506 22.6096 187.244 22.5768 186.981 22.5768ZM207.164 37C206.377 37 205.733 36.7924 205.23 36.3772C204.727 35.962 204.476 35.3829 204.476 34.6398C204.476 34.465 204.487 34.2793 204.509 34.0826C204.552 33.8859 204.585 33.7329 204.607 33.6237L204.705 33.0992H204.542C203.842 34.4978 203.066 35.5686 202.214 36.3116C201.362 37.0328 200.28 37.3934 198.969 37.3934C198.182 37.3934 197.483 37.2513 196.871 36.9672C196.281 36.6613 195.789 36.2351 195.396 35.6888C195.003 35.1425 194.708 34.4978 194.511 33.7548C194.314 33.0118 194.216 32.1813 194.216 31.2635C194.216 29.6026 194.413 28.062 194.806 26.6415C195.199 25.1992 195.746 23.9536 196.445 22.9046C197.166 21.8338 198.018 21.0034 199.002 20.4133C200.007 19.8014 201.1 19.4955 202.28 19.4955C203.438 19.4955 204.41 19.8014 205.197 20.4133C205.984 21.0252 206.454 21.8229 206.607 22.8063H206.771L207.361 19.8888H211.327L208.541 33.7548H210.606L209.983 37H207.164ZM200.772 34.0826C201.406 34.0826 201.974 33.9296 202.476 33.6237C203.001 33.2959 203.449 32.9134 203.82 32.4764C204.257 31.9956 204.618 31.4493 204.902 30.8374C205.186 30.2036 205.405 29.5371 205.558 28.8378L206.148 25.9204C206.323 25.0462 206.126 24.3141 205.558 23.7241C205.011 23.1122 204.214 22.8063 203.165 22.8063C200.914 22.8063 199.504 24.2158 198.936 27.0349L198.477 29.395C198.434 29.6354 198.39 29.9304 198.346 30.2801C198.302 30.6298 198.281 30.9357 198.281 31.1979C198.281 32.0721 198.488 32.7714 198.903 33.2959C199.34 33.8203 199.963 34.0826 200.772 34.0826ZM212.307 37L215.749 19.8888H219.715L218.961 23.6913H219.125C219.759 22.3583 220.491 21.3312 221.321 20.61C222.174 19.867 223.255 19.4955 224.567 19.4955C225.812 19.4955 226.774 19.867 227.451 20.61C228.129 21.353 228.489 22.3801 228.533 23.6913H228.697C229.331 22.402 230.085 21.3858 230.959 20.6428C231.833 19.8779 232.947 19.4955 234.302 19.4955C235.613 19.4955 236.608 19.8888 237.285 20.6756C237.963 21.4623 238.301 22.544 238.301 23.9208C238.301 24.3797 238.269 24.8386 238.203 25.2975C238.159 25.7346 238.083 26.1935 237.974 26.6743L236.564 33.7548H238.465L237.81 37H235.056C234.269 37 233.647 36.8033 233.188 36.41C232.729 35.9947 232.499 35.4156 232.499 34.6726C232.499 34.3667 232.532 34.0607 232.598 33.7548L234.007 26.7071C234.073 26.3793 234.127 26.0624 234.171 25.7565C234.215 25.4505 234.237 25.1664 234.237 24.9042C234.237 24.2704 234.095 23.7787 233.811 23.4291C233.526 23.0576 233.068 22.8718 232.434 22.8718C231.931 22.8718 231.439 23.0139 230.959 23.298C230.5 23.5602 230.085 23.9099 229.713 24.3469C229.276 24.8495 228.894 25.4287 228.566 26.0843C228.26 26.718 228.052 27.3518 227.943 27.9855L226.14 37H222.174L224.239 26.7071C224.304 26.4011 224.359 26.0952 224.403 25.7892C224.446 25.4614 224.468 25.1664 224.468 24.9042C224.468 24.2704 224.326 23.7787 224.042 23.4291C223.758 23.0576 223.299 22.8718 222.665 22.8718C222.097 22.8718 221.584 23.0139 221.125 23.298C220.666 23.5821 220.251 23.9426 219.879 24.3797C219.442 24.8823 219.06 25.4505 218.732 26.0843C218.426 26.6962 218.207 27.3299 218.076 27.9855L216.273 37H212.307Z" fill="white"/>
<defs>
<filter id="filter0_f_3507_14885" x="13.4148" y="20.532" width="33.35" height="36.182" filterUnits="userSpaceOnUse" color-interpolation-filters="sRGB">
<feFlood flood-opacity="0" result="BackgroundImageFix"/>
<feBlend mode="normal" in="SourceGraphic" in2="BackgroundImageFix" result="shape"/>
<feGaussianBlur stdDeviation="3.65" result="effect1_foregroundBlur_3507_14885"/>
</filter>
<linearGradient id="paint0_linear_3507_14885" x1="7.1293" y1="13.1631" x2="21.8803" y2="27.9141" gradientUnits="userSpaceOnUse">
<stop stop-color="#FD5C6F"/>
<stop offset="0.5" stop-color="#F9475E"/>
<stop offset="1" stop-color="#E92740"/>
</linearGradient>
<linearGradient id="paint1_linear_3507_14885" x1="30.0898" y1="41.3574" x2="28.9938" y2="49.0818" gradientUnits="userSpaceOnUse">
<stop stop-color="#BC1F32"/>
<stop offset="0.424" stop-color="#C12034" stop-opacity="0.576"/>
<stop offset="0.918" stop-color="#CF2238" stop-opacity="0.082"/>
<stop offset="1" stop-color="#D22239" stop-opacity="0"/>
</linearGradient>
<linearGradient id="paint2_linear_3507_14885" x1="35.8631" y1="31.8836" x2="41.6073" y2="37.6278" gradientUnits="userSpaceOnUse">
<stop stop-color="#BC1F32"/>
<stop offset="0.424" stop-color="#C12034" stop-opacity="0.576"/>
<stop offset="0.918" stop-color="#CF2238" stop-opacity="0.082"/>
<stop offset="1" stop-color="#D22239" stop-opacity="0"/>
</linearGradient>
<radialGradient id="paint3_radial_3507_14885" cx="0" cy="0" r="1" gradientUnits="userSpaceOnUse" gradientTransform="translate(14.3529 14.1557) scale(21.1231 21.1231)">
<stop stop-color="#F1F6F9"/>
<stop offset="1" stop-color="#DDE8EF"/>
</radialGradient>
<linearGradient id="paint4_linear_3507_14885" x1="21" y1="35" x2="51" y2="44" gradientUnits="userSpaceOnUse">
<stop stop-color="#FF6342"/>
<stop offset="1" stop-color="#FF4524"/>
</linearGradient>
<clipPath id="clip0_3507_14885">
<rect width="50" height="50" fill="white" transform="translate(0.5)"/>
</clipPath>
</defs>
</svg>
